<?xml version="1.0" standalone="no"?>
<!DOCTYPE svg PUBLIC "-//W3C//DTD SVG 20010904//EN"
 "http://www.w3.org/TR/2001/REC-SVG-20010904/DTD/svg10.dtd">
<svg version="1.0" xmlns="http://www.w3.org/2000/svg"
 width="512.000000pt" height="512.000000pt" viewBox="0 0 512.000000 512.000000"
 preserveAspectRatio="xMidYMid meet">

<g transform="translate(0.000000,512.000000) scale(0.100000,-0.100000)"
fill="#000000" stroke="none">
<path d="M782 4650 c-46 -28 -72 -76 -72 -133 0 -27 5 -58 11 -70 6 -12 169
-180 361 -373 348 -350 351 -352 327 -367 -219 -136 -295 -188 -417 -279 -263
-198 -501 -420 -700 -654 -119 -138 -136 -170 -129 -231 6 -53 61 -128 229
-313 473 -519 1058 -910 1595 -1065 406 -118 814 -108 1243 29 145 46 360 142
468 208 l34 21 351 -351 c379 -378 374 -373 463 -359 97 16 156 138 110 225
-18 33 -3692 3705 -3723 3721 -35 18 -114 13 -151 -9z m1096 -1373 l202 -203
-40 -39 c-59 -58 -116 -150 -151 -246 -41 -110 -51 -274 -25 -393 33 -145 130
-301 244 -391 79 -63 197 -120 288 -140 109 -25 271 -17 380 19 88 28 207 101
264 160 l34 36 208 -207 c114 -114 208 -211 208 -214 0 -10 -127 -74 -230
-114 -300 -119 -621 -166 -896 -131 -451 58 -900 282 -1377 688 -109 93 -457
440 -457 456 0 4 51 62 113 129 185 202 405 395 636 557 121 85 367 236 385
236 6 0 102 -91 214 -203z m941 -1003 c-40 -42 -126 -83 -200 -96 -153 -27
-322 58 -397 199 -76 145 -57 317 50 438 l31 36 273 -272 274 -273 -31 -32z"/>
<path d="M2357 4029 c-224 -24 -284 -58 -295 -168 -6 -65 29 -130 84 -156 40
-19 61 -18 254 6 111 13 317 6 435 -15 432 -78 867 -306 1310 -688 116 -100
445 -431 445 -448 0 -17 -331 -349 -445 -447 -121 -104 -145 -137 -145 -201 0
-111 113 -190 212 -149 113 47 673 607 733 733 34 72 17 120 -86 244 -487 586
-1138 1045 -1724 1215 -258 74 -529 100 -778 74z"/>
</g>
</svg>
